<svg width="755" height="385" viewBox="0 0 755 385" fill="none" xmlns="http://www.w3.org/2000/svg">
<path d="M555 25C555 11.1929 566.193 0 580 0H730C743.807 0 755 11.1929 755 25V175C755 188.807 743.807 200 730 200H580C566.193 200 555 188.807 555 175V25Z" fill="#4DD050"/>
<path d="M730 185V200H580V185H730ZM740 175V25C740 19.4772 735.523 15 730 15H580C574.477 15 570 19.4772 570 25V175C570 180.523 574.477 185 580 185V200C566.193 200 555 188.807 555 175V25C555 11.4087 565.846 0.350187 579.354 0.0078125L580 0H730L730.646 0.0078125C744.154 0.350187 755 11.4087 755 25V175L754.992 175.646C754.65 189.154 743.591 200 730 200V185C735.523 185 740 180.523 740 175Z" fill="black"/>
<path d="M185 210C185 196.193 196.193 185 210 185H360C373.807 185 385 196.193 385 210V360C385 373.807 373.807 385 360 385H210C196.193 385 185 373.807 185 360V210Z" fill="#4DD050"/>
<path d="M360 370V385H210V370H360ZM370 360V210C370 204.477 365.523 200 360 200H210C204.477 200 200 204.477 200 210V360C200 365.523 204.477 370 210 370V385C196.193 385 185 373.807 185 360V210C185 196.409 195.846 185.35 209.354 185.008L210 185H360L360.646 185.008C374.154 185.35 385 196.409 385 210V360L384.992 360.646C384.65 374.154 373.591 385 360 385V370C365.523 370 370 365.523 370 360Z" fill="black"/>
<path d="M185 25C185 11.1929 196.193 0 210 0H360C373.807 0 385 11.1929 385 25V175C385 188.807 373.807 200 360 200H210C196.193 200 185 188.807 185 175V25Z" fill="#FD5C8B"/>
<path d="M360 185V200H210V185H360ZM370 175V25C370 19.4772 365.523 15 360 15H210C204.477 15 200 19.4772 200 25V175C200 180.523 204.477 185 210 185V200C196.193 200 185 188.807 185 175V25C185 11.4087 195.846 0.350187 209.354 0.0078125L210 0H360L360.646 0.0078125C374.154 0.350187 385 11.4087 385 25V175L384.992 175.646C384.65 189.154 373.591 200 360 200V185C365.523 185 370 180.523 370 175Z" fill="black"/>
<path d="M555 210C555 196.193 566.193 185 580 185H730C743.807 185 755 196.193 755 210V360C755 373.807 743.807 385 730 385H580C566.193 385 555 373.807 555 360V210Z" fill="#FD5C8B"/>
<path d="M730 370V385H580V370H730ZM740 360V210C740 204.477 735.523 200 730 200H580C574.477 200 570 204.477 570 210V360C570 365.523 574.477 370 580 370V385C566.193 385 555 373.807 555 360V210C555 196.409 565.846 185.35 579.354 185.008L580 185H730L730.646 185.008C744.154 185.35 755 196.409 755 210V360L754.992 360.646C754.65 374.154 743.591 385 730 385V370C735.523 370 740 365.523 740 360Z" fill="black"/>
<path d="M370 25C370 11.1929 381.193 0 395 0H545C558.807 0 570 11.1929 570 25V175C570 188.807 558.807 200 545 200H395C381.193 200 370 188.807 370 175V25Z" fill="#F6B503"/>
<path d="M545 185V200H395V185H545ZM555 175V25C555 19.4772 550.523 15 545 15H395C389.477 15 385 19.4772 385 25V175C385 180.523 389.477 185 395 185V200C381.193 200 370 188.807 370 175V25C370 11.4087 380.846 0.350187 394.354 0.0078125L395 0H545L545.646 0.0078125C559.154 0.350187 570 11.4087 570 25V175L569.992 175.646C569.65 189.154 558.591 200 545 200V185C550.523 185 555 180.523 555 175Z" fill="black"/>
<path d="M0 210C0 196.193 11.1929 185 25 185H175C188.807 185 200 196.193 200 210V360C200 373.807 188.807 385 175 385H25C11.1929 385 0 373.807 0 360V210Z" fill="#F6B503"/>
<path d="M175 370V385H25V370H175ZM185 360V210C185 204.477 180.523 200 175 200H25C19.4772 200 15 204.477 15 210V360C15 365.523 19.4772 370 25 370V385C11.1929 385 0 373.807 0 360V210C0 196.409 10.8457 185.35 24.3545 185.008L25 185H175L175.646 185.008C189.154 185.35 200 196.409 200 210V360L199.992 360.646C199.65 374.154 188.591 385 175 385V370C180.523 370 185 365.523 185 360Z" fill="black"/>
<path d="M0 25C0 11.1929 11.1929 0 25 0H175C188.807 0 200 11.1929 200 25V175C200 188.807 188.807 200 175 200H25C11.1929 200 0 188.807 0 175V25Z" fill="#39B5FD"/>
<path d="M175 185V200H25V185H175ZM185 175V25C185 19.4772 180.523 15 175 15H25C19.4772 15 15 19.4772 15 25V175C15 180.523 19.4772 185 25 185V200C11.1929 200 0 188.807 0 175V25C0 11.4087 10.8457 0.350187 24.3545 0.0078125L25 0H175L175.646 0.0078125C189.154 0.350187 200 11.4087 200 25V175L199.992 175.646C199.65 189.154 188.591 200 175 200V185C180.523 185 185 180.523 185 175Z" fill="black"/>
<path d="M370 210C370 196.193 381.193 185 395 185H545C558.807 185 570 196.193 570 210V360C570 373.807 558.807 385 545 385H395C381.193 385 370 373.807 370 360V210Z" fill="#39B5FD"/>
<path d="M545 370V385H395V370H545ZM555 360V210C555 204.477 550.523 200 545 200H395C389.477 200 385 204.477 385 210V360C385 365.523 389.477 370 395 370V385C381.193 385 370 373.807 370 360V210C370 196.409 380.846 185.35 394.354 185.008L395 185H545L545.646 185.008C559.154 185.35 570 196.409 570 210V360L569.992 360.646C569.65 374.154 558.591 385 545 385V370C550.523 370 555 365.523 555 360Z" fill="black"/>
<path d="M55.752 153.35C52.352 153.35 49.752 152.4 47.952 150.5C46.152 148.6 45.252 145.95 45.252 142.55V55.7C45.252 52.3 46.202 49.65 48.102 47.75C50.102 45.85 52.802 44.9 56.202 44.9C59.202 44.9 61.552 45.5 63.252 46.7C65.052 47.8 66.702 49.75 68.202 52.55L102.852 115.85H97.752L132.402 52.55C133.902 49.75 135.502 47.8 137.202 46.7C139.002 45.5 141.352 44.9 144.252 44.9C147.652 44.9 150.252 45.85 152.052 47.75C153.952 49.65 154.902 52.3 154.902 55.7V142.55C154.902 145.95 154.002 148.6 152.202 150.5C150.402 152.4 147.802 153.35 144.402 153.35C141.002 153.35 138.352 152.4 136.452 150.5C134.652 148.6 133.752 145.95 133.752 142.55V81.8H137.052L109.152 131.75C107.952 133.65 106.652 135.1 105.252 136.1C103.952 137 102.202 137.45 100.002 137.45C97.802 137.45 96.002 136.95 94.602 135.95C93.202 134.95 91.952 133.55 90.852 131.75L62.652 81.65H66.252V142.55C66.252 145.95 65.352 148.6 63.552 150.5C61.852 152.4 59.252 153.35 55.752 153.35Z" fill="black"/>
<path d="M285.085 153.35C281.285 153.35 278.385 152.3 276.385 150.2C274.385 148.1 273.385 145.15 273.385 141.35V56.9C273.385 53.1 274.385 50.15 276.385 48.05C278.385 45.95 281.285 44.9 285.085 44.9C288.785 44.9 291.635 45.95 293.635 48.05C295.635 50.15 296.635 53.1 296.635 56.9V141.35C296.635 145.15 295.635 148.1 293.635 150.2C291.735 152.3 288.885 153.35 285.085 153.35Z" fill="black"/>
<path d="M434.98 153.35C431.48 153.35 428.78 152.4 426.88 150.5C425.08 148.5 424.18 145.7 424.18 142.1V56.6C424.18 52.8 425.08 49.9 426.88 47.9C428.78 45.9 431.28 44.9 434.38 44.9C437.08 44.9 439.13 45.45 440.53 46.55C442.03 47.55 443.73 49.25 445.63 51.65L498.28 118.7H494.23V56C494.23 52.5 495.13 49.8 496.93 47.9C498.83 45.9 501.53 44.9 505.03 44.9C508.53 44.9 511.18 45.9 512.98 47.9C514.88 49.8 515.83 52.5 515.83 56V142.55C515.83 145.85 514.98 148.5 513.28 150.5C511.58 152.4 509.28 153.35 506.38 153.35C503.58 153.35 501.33 152.8 499.63 151.7C498.03 150.6 496.28 148.85 494.38 146.45L441.88 79.4H445.78V142.1C445.78 145.7 444.88 148.5 443.08 150.5C441.28 152.4 438.58 153.35 434.98 153.35Z" fill="black"/>
<path d="M655.085 153.35C651.285 153.35 648.385 152.3 646.385 150.2C644.385 148.1 643.385 145.15 643.385 141.35V56.9C643.385 53.1 644.385 50.15 646.385 48.05C648.385 45.95 651.285 44.9 655.085 44.9C658.785 44.9 661.635 45.95 663.635 48.05C665.635 50.15 666.635 53.1 666.635 56.9V141.35C666.635 145.15 665.635 148.1 663.635 150.2C661.735 152.3 658.885 153.35 655.085 153.35Z" fill="black"/>
<path d="M142.909 352.15C144.509 354.75 145.109 357.1 144.709 359.2C144.309 361.4 143.309 363.2 141.709 364.6C140.109 366.1 138.159 367.05 135.859 367.45C133.659 367.85 131.409 367.6 129.109 366.7C126.909 365.9 125.009 364.3 123.409 361.9L112.759 344.5C111.459 342.5 109.759 341 107.659 340C105.659 339.1 103.059 338.65 99.8586 338.65L117.559 331.9C122.159 331.9 125.909 332.7 128.809 334.3C131.809 335.9 134.509 338.65 136.909 342.55L142.909 352.15ZM100.009 338.65C89.6086 338.65 80.4586 336.4 72.5586 331.9C64.7586 327.3 58.6586 320.9 54.2586 312.7C49.9586 304.5 47.8086 294.95 47.8086 284.05C47.8086 275.75 49.0086 268.3 51.4086 261.7C53.9086 255 57.4586 249.3 62.0586 244.6C66.6586 239.8 72.1586 236.1 78.5586 233.5C85.0586 230.9 92.2086 229.6 100.009 229.6C110.609 229.6 119.809 231.85 127.609 236.35C135.409 240.85 141.459 247.2 145.759 255.4C150.159 263.5 152.359 273 152.359 283.9C152.359 292.2 151.109 299.7 148.609 306.4C146.109 313.1 142.559 318.85 137.959 323.65C133.359 328.45 127.859 332.15 121.459 334.75C115.059 337.35 107.909 338.65 100.009 338.65ZM100.009 318.85C105.909 318.85 110.909 317.5 115.009 314.8C119.209 312 122.409 308 124.609 302.8C126.909 297.5 128.059 291.25 128.059 284.05C128.059 273.05 125.609 264.55 120.709 258.55C115.809 252.45 108.909 249.4 100.009 249.4C94.2086 249.4 89.2086 250.75 85.0086 253.45C80.8086 256.15 77.6086 260.1 75.4086 265.3C73.2086 270.5 72.1086 276.75 72.1086 284.05C72.1086 294.95 74.5586 303.5 79.4586 309.7C84.3586 315.8 91.2086 318.85 100.009 318.85Z" fill="black"/>
<path d="M285.212 338.65C277.712 338.65 271.062 337.7 265.262 335.8C259.562 333.8 254.762 330.9 250.862 327.1C246.962 323.3 244.012 318.55 242.012 312.85C240.112 307.05 239.162 300.35 239.162 292.75V241.75C239.162 237.85 240.162 234.9 242.162 232.9C244.162 230.9 247.062 229.9 250.862 229.9C254.562 229.9 257.412 230.9 259.412 232.9C261.412 234.9 262.412 237.85 262.412 241.75V292.9C262.412 301.5 264.362 308 268.262 312.4C272.162 316.7 277.812 318.85 285.212 318.85C292.612 318.85 298.212 316.7 302.012 312.4C305.912 308 307.862 301.5 307.862 292.9V241.75C307.862 237.85 308.862 234.9 310.862 232.9C312.862 230.9 315.712 229.9 319.412 229.9C323.112 229.9 325.912 230.9 327.812 232.9C329.812 234.9 330.812 237.85 330.812 241.75V292.75C330.812 302.85 329.062 311.35 325.562 318.25C322.162 325.05 317.062 330.15 310.262 333.55C303.562 336.95 295.212 338.65 285.212 338.65Z" fill="black"/>
<path d="M470.085 338.35C466.285 338.35 463.385 337.3 461.385 335.2C459.385 333.1 458.385 330.15 458.385 326.35V241.9C458.385 238.1 459.385 235.15 461.385 233.05C463.385 230.95 466.285 229.9 470.085 229.9C473.785 229.9 476.635 230.95 478.635 233.05C480.635 235.15 481.635 238.1 481.635 241.9V326.35C481.635 330.15 480.635 333.1 478.635 335.2C476.735 337.3 473.885 338.35 470.085 338.35Z" fill="black"/>
<path d="M626.408 337C623.408 337 620.958 336.4 619.058 335.2C617.158 333.9 615.858 332.2 615.158 330.1C614.558 327.9 614.558 325.5 615.158 322.9C615.858 320.3 617.258 317.7 619.358 315.1L673.958 243.55V250.6H624.608C621.308 250.6 618.758 249.75 616.958 248.05C615.258 246.35 614.408 243.95 614.408 240.85C614.408 237.75 615.258 235.4 616.958 233.8C618.758 232.1 621.308 231.25 624.608 231.25H684.908C688.008 231.25 690.458 231.9 692.258 233.2C694.158 234.4 695.458 236.05 696.158 238.15C696.858 240.25 696.858 242.65 696.158 245.35C695.458 247.95 694.058 250.55 691.958 253.15L637.358 324.55V317.65H689.108C692.408 317.65 694.908 318.5 696.608 320.2C698.408 321.8 699.308 324.15 699.308 327.25C699.308 330.45 698.408 332.9 696.608 334.6C694.908 336.2 692.408 337 689.108 337H626.408Z" fill="black"/>
</svg>
